<svg width="24" height="24" viewBox="0 0 24 24" fill="none" xmlns="http://www.w3.org/2000/svg">
<path d="M4.25346 18.05L8.08126 17.0928L8.30209 16.2085C6.88695 16.0166 5.51442 15.5869 4.2425 14.9376C4.10073 14.8526 4.01024 14.7029 4.00069 14.5379C3.99067 14.3728 4.0619 14.2131 4.19155 14.1103C4.20953 14.0983 5.99505 12.6235 5.99505 7.51377C5.99505 3.20436 7.00319 1.01918 8.99255 1.01918H9.2923C9.98247 0.277536 10.9833 -0.0931224 11.99 0.020033C13.8675 0.020033 17.985 1.90747 17.985 7.51377C17.985 12.6235 19.7706 14.0983 19.7835 14.1083C20.0045 14.2735 20.0496 14.5866 19.8844 14.8076C19.8456 14.8594 19.7971 14.9032 19.7416 14.9366C18.4708 15.592 17.0964 16.0233 15.679 16.2115L15.8998 17.0938L19.7265 18.051C22.2286 18.6735 23.9837 20.9221 23.98 23.5004C23.98 23.7763 23.7563 24 23.4804 24H0.499567C0.223658 24 -3.05176e-05 23.7763 -3.05176e-05 23.5004C-0.00410652 20.9217 1.75102 18.6726 4.25346 18.05Z" fill="#C10016"/>
</svg>
