<svg width="24" height="24" viewBox="0 0 24 24" fill="none" xmlns="http://www.w3.org/2000/svg">
<g clip-path="url(#clip0)">
<path d="M23.9857 23.379L23.3857 20.979C23.101 19.8147 22.2379 18.8784 21.1007 18.5L16.7006 17.034C15.6276 16.587 15.1367 14.859 15.0306 14.203C15.8482 13.5231 16.3743 12.5558 16.5006 11.5C16.4826 11.3197 16.5251 11.1384 16.6216 10.985C16.7775 10.9459 16.9052 10.8343 16.9646 10.685C17.2525 9.98784 17.4332 9.25116 17.5006 8.49998C17.5008 8.45916 17.4957 8.41852 17.4856 8.379C17.414 8.08711 17.2424 7.82953 17.0006 7.65098V4.99997C17.0006 3.38897 16.5086 2.72798 15.9906 2.34497C15.8917 1.569 15.0607 0 12.0007 0C9.28581 0.109313 7.10997 2.28516 7.00066 5.00002V7.65103C6.75887 7.82958 6.58727 8.08716 6.51564 8.37905C6.50552 8.41856 6.5005 8.45925 6.50064 8.50003C6.56795 9.25158 6.74866 9.98859 7.03666 10.686C7.07997 10.8274 7.19355 10.9361 7.33666 10.9731C7.39267 11.001 7.49767 11.1461 7.49767 11.5001C7.62475 12.5589 8.15388 13.5284 8.97569 14.2081C8.87069 14.8631 8.38267 16.5901 7.3397 17.0261L2.90069 18.5001C1.7643 18.8784 0.901796 19.8138 0.616702 20.9771L0.016702 23.3771C-0.0512199 23.6447 0.110686 23.9168 0.378343 23.9847C0.418327 23.9949 0.459436 24 0.500686 24.0001H23.5007C23.7768 24 24.0006 23.7761 24.0006 23.4999C24.0005 23.4591 23.9955 23.4185 23.9857 23.379Z" fill="#939393"/>
</g>
<defs>
<clipPath id="clip0">
<rect width="24" height="24" fill="white"/>
</clipPath>
</defs>
</svg>
